<?xml version="1.0" standalone="no"?>
<!DOCTYPE svg PUBLIC "-//W3C//DTD SVG 20010904//EN"
 "http://www.w3.org/TR/2001/REC-SVG-20010904/DTD/svg10.dtd">
<svg version="1.0" xmlns="http://www.w3.org/2000/svg"
 width="1024.000000pt" height="1024.000000pt" viewBox="0 0 1024.000000 1024.000000"
 preserveAspectRatio="xMidYMid meet">
<metadata>
Created by potrace 1.14, written by Peter Selinger 2001-2017
</metadata>
<g transform="translate(0.000000,1024.000000) scale(0.100000,-0.100000)"
fill="#000000" stroke="none">
<path d="M4346 8434 c-693 -125 -1138 -798 -980 -1482 107 -462 475 -815 958
-920 69 -15 138 -17 481 -17 l400 0 52 27 c113 60 175 159 177 282 1 119 -60
223 -166 282 l-53 29 -380 6 c-416 7 -430 9 -555 71 -89 45 -205 161 -247 248
-44 91 -63 170 -63 267 0 173 50 295 169 414 75 76 130 110 241 153 l55 21
1615 3 c1177 2 1634 0 1684 -9 103 -17 231 -85 309 -164 98 -99 148 -204 167
-348 36 -272 -137 -538 -410 -629 -64 -22 -77 -22 -810 -28 -691 -5 -749 -7
-795 -24 -209 -77 -344 -211 -417 -413 -17 -47 -22 -94 -28 -253 -9 -240 -17
-269 -104 -356 -99 -99 -88 -97 -591 -104 l-430 -6 -90 -28 c-323 -99 -560
-330 -658 -643 -33 -104 -47 -214 -47 -375 l0 -128 -34 -38 -34 -37 -664 -6
c-572 -5 -673 -8 -733 -22 -253 -61 -442 -165 -615 -337 -248 -247 -371 -562
-357 -915 21 -504 353 -943 835 -1105 186 -62 117 -60 1923 -60 1441 0 1657 2
1735 15 159 28 282 73 414 150 553 325 765 1025 483 1590 -166 333 -463 567
-833 658 -81 20 -117 21 -735 24 -446 2 -659 7 -678 15 -15 6 -37 24 -48 39
-19 27 -20 41 -17 187 3 143 5 162 28 207 34 70 108 139 175 164 52 20 76 21
401 21 190 0 388 5 441 11 329 36 620 240 763 534 67 136 91 231 97 385 6 139
16 170 66 200 31 19 55 20 652 20 681 0 732 3 906 59 188 61 345 157 489 301
442 440 481 1134 92 1623 -185 232 -461 394 -752 442 -137 22 -3361 21 -3484
-1z m1494 -4856 c156 -49 304 -169 367 -299 85 -172 85 -366 0 -539 -46 -94
-159 -206 -257 -254 -145 -70 -41 -67 -1838 -63 -1489 2 -1621 4 -1665 19
-206 73 -353 226 -403 419 -24 91 -22 236 5 319 59 186 218 342 402 394 29 8
68 17 84 19 17 2 755 4 1640 3 1484 -1 1614 -3 1665 -18z"/>
</g>
</svg>
